<?xml version="1.0" encoding="UTF-8"?>
<svg width="24px" height="24px" viewBox="0 0 24 24" version="1.1" xmlns="http://www.w3.org/2000/svg" xmlns:xlink="http://www.w3.org/1999/xlink">
    <!-- Generator: Sketch 40.3 (33839) - http://www.bohemiancoding.com/sketch -->
    <title>Configure_24</title>
    <desc>Created with Sketch.</desc>
    <defs></defs>
    <g id="Latest-Design-redlines" stroke="none" stroke-width="1" fill="#000000" fill-rule="evenodd">
        <g id="Configure_24">
            <g id="Group">
                <g>
                    <path d="M22.161,0.5 C21.9042515,0.243699962 21.5008636,0.207908757 21.203,0.415 L17.805,2.776 C17.6226875,2.90283666 17.5059652,3.10395242 17.4862756,3.32517112 C17.4665859,3.54638983 17.5459541,3.76495867 17.703,3.922 L18.41,4.63 L8.928,14.112 L7.422,12.605 C7.23247061,12.4154706 6.95622549,12.3414509 6.69732352,12.4108235 C6.43842155,12.4801961 6.23619609,12.6824215 6.16682351,12.9413235 C6.09745094,13.2002255 6.1714706,13.4764706 6.361,13.666 L6.842,14.147 L1.743,19.518 C1.33,19.932 1.102,20.482 1.102,21.066 C1.102,21.65 1.33,22.2 1.742,22.612 C2.155,23.026 2.704,23.255 3.289,23.256 L3.29,23.256 C3.876,23.256 4.426,23.027 4.84,22.613 L4.853,22.599 L9.937,17.245 L10.429,17.738 C10.5693644,17.8789416 10.7600862,17.9581705 10.959,17.9581705 C11.1579138,17.9581705 11.3486356,17.8789416 11.489,17.738 C11.6297563,17.5973339 11.7088399,17.4064956 11.7088399,17.2075 C11.7088399,17.0085044 11.6297563,16.8176661 11.489,16.677 L9.986,15.174 L19.468,5.692 L20.074,6.297 C20.2146809,6.4373258 20.4052981,6.51609024 20.604,6.516 C20.622,6.516 20.64,6.516 20.658,6.514 C20.875003,6.49815988 21.0745084,6.38910666 21.205,6.215 L23.668,2.921 C23.8910783,2.62258045 23.8612668,2.20564513 23.598,1.942 L22.161,0.5 L22.161,0.5 Z M3.773,21.557 C3.64446771,21.6834609 3.47131325,21.7542316 3.291,21.754 C3.10830797,21.7543664 2.93315298,21.6812049 2.805,21.551 C2.675,21.421 2.603,21.248 2.603,21.065 C2.603,20.882 2.675,20.708 2.818,20.564 L7.883,15.229 L8.858,16.204 L3.773,21.557 L3.773,21.557 Z M20.524,4.622 L19.397,3.496 L21.543,2.005 L22.08,2.542 L20.524,4.622 L20.524,4.622 Z" id="Shape"></path>
                    <path d="M6.104,9.292 L8.685,11.866 C8.82540507,12.0073645 9.01646611,12.0867804 9.21570838,12.0865926 C9.41495065,12.0864048 9.60586165,12.006629 9.746,11.865 C10.0382921,11.5715639 10.0378447,11.0968846 9.745,10.804 L6.828,7.895 C6.61164771,7.67933932 6.28611399,7.61644763 6.005,7.736 C4.85096356,8.23632781 3.5084943,7.98233643 2.617,7.095 C2.02970574,6.51202265 1.7045007,5.71543272 1.716,4.888 L2.739,5.836 C2.878,5.965 3.06,6.036 3.249,6.036 L5.168,6.036 C5.58221356,6.036 5.918,5.70021356 5.918,5.286 L5.918,3.367 C5.91786992,3.18350042 5.85064978,3.00638066 5.729,2.869 L4.773,1.791 C5.60174239,1.7798285 6.39956922,2.10531009 6.984,2.693 C7.87685917,3.58121555 8.13761027,4.9242026 7.642,6.082 C7.52352408,6.36357004 7.5871537,6.688832 7.803,6.905 L10.546,9.647 C10.7355294,9.83652941 11.0117745,9.91054907 11.2706765,9.8411765 C11.5295785,9.77180393 11.7318039,9.56957846 11.8011765,9.31067649 C11.8705491,9.05177451 11.7965294,8.77552939 11.607,8.586 L9.199,6.18 C9.6822661,4.5671847 9.23875907,2.81929045 8.045,1.632 C6.709,0.299 4.809,-0.077 3.083,0.652 C2.86115154,0.746608975 2.69814216,0.94188414 2.64469167,1.17706629 C2.59124118,1.41224844 2.65383601,1.65879729 2.813,1.84 L4.418,3.651 L4.418,4.536 L3.542,4.536 L1.777,2.899 C1.59768852,2.73264133 1.34851968,2.66417261 1.10937816,2.71554523 C0.870236642,2.76691784 0.671170024,2.93167695 0.576,3.157 C-0.150846376,4.8664023 0.236943327,6.84614994 1.555,8.155 C2.74483859,9.34528982 4.49405677,9.78249824 6.104,9.292 L6.104,9.292 Z M17.754,14.733 L15.356,12.334 C15.0618504,12.0496289 14.5940665,12.0534718 14.3046284,12.342637 C14.0151904,12.6318023 14.0109064,13.0995823 14.295,13.394 L17.028,16.129 C17.2442602,16.3447529 17.5696576,16.4080137 17.851,16.289 C19.0090278,15.7939316 20.3518757,16.0550519 21.24,16.948 C21.85,17.558 22.164,18.372 22.144,19.198 L21.03,18.17 C20.8914004,18.0420101 20.7096564,17.970955 20.521,17.971 L18.602,17.971 C18.1877864,17.971 17.852,18.3067864 17.852,18.721 L17.852,20.64 C17.8518655,20.8343133 17.9271515,21.0210944 18.062,21.161 L19.084,22.222 C18.281,22.208 17.473,21.918 16.872,21.318 C15.9793918,20.4292834 15.7183406,19.0863949 16.213,17.928 C16.3315912,17.6467651 16.2679257,17.3217151 16.052,17.106 L13.119,14.172 C12.9294706,13.9824706 12.6532255,13.9084509 12.3943235,13.9778235 C12.1354215,14.0471961 11.9331961,14.2494215 11.8638235,14.5083235 C11.7944509,14.7672255 11.8684706,15.0434706 12.058,15.233 L14.655,17.831 C14.1722159,19.4440033 14.6160844,21.1918076 15.81,22.379 C16.6667724,23.2399939 17.8313521,23.7240358 19.046,23.724 C19.65,23.724 20.261,23.604 20.844,23.359 C21.0718543,23.2628751 21.2376774,23.0606062 21.287253,22.8183257 C21.3368285,22.5760452 21.2637834,22.3248989 21.092,22.147 L19.35,20.339 L19.35,19.473 L20.226,19.473 L22.078,21.182 C22.2573079,21.3479202 22.5061901,21.4161125 22.7450289,21.3647621 C22.9838676,21.3134118 23.1827301,21.1489544 23.278,20.924 C24.0121858,19.2040486 23.6243758,17.2103333 22.299,15.891 C21.1134991,14.6963379 19.366624,14.2512594 17.754,14.733 L17.754,14.733 Z" id="Shape"></path>
                </g>
            </g>
        </g>
    </g>
</svg>
