<?xml version="1.0" encoding="UTF-8"?>
<svg width="64px" height="64px" viewBox="0 0 64 64" version="1.1" xmlns="http://www.w3.org/2000/svg" xmlns:xlink="http://www.w3.org/1999/xlink">
    <!-- Generator: Sketch 40.3 (33839) - http://www.bohemiancoding.com/sketch -->
    <title>Configure_64</title>
    <desc>Created with Sketch.</desc>
    <defs></defs>
    <g id="Latest-Design-redlines" stroke="none" stroke-width="1" fill="#000000" fill-rule="evenodd">
        <g id="Configure_64">
            <g id="Group">
                <g>
                    <path d="M63.414,4.923 L59.431,0.94 C59.0888877,0.598237131 58.5512396,0.550240356 58.154,0.826 L48.752,7.358 C48.5087752,7.52695465 48.3529483,7.79502633 48.3265018,8.08999165 C48.3000553,8.38495698 48.4057098,8.676473 48.615,8.886 L51.335,11.605 L24.393,38.547 L19.468,33.62 C19.2154132,33.3674132 18.84726,33.2687668 18.50222,33.36122 C18.1571801,33.4536732 17.8876732,33.7231801 17.79522,34.06822 C17.7027668,34.41326 17.8014132,34.7814132 18.054,35.034 L20.161,37.142 L3.419,53.89 C2.48135976,54.8223006 1.95532974,56.0907495 1.958,57.413 C1.958,58.744 2.478,59.995 3.417,60.933 C4.3469295,61.8727028 5.61495585,62.4000865 6.937,62.397 L6.941,62.397 C8.273,62.397 9.525,61.877 10.466,60.934 L27.207,44.19 L29.314,46.298 C29.5011351,46.4862092 29.7555904,46.5920349 30.021,46.5920349 C30.2864096,46.5920349 30.5408649,46.4862092 30.728,46.298 C30.9157164,46.1106026 31.0212012,45.8562456 31.0212012,45.591 C31.0212012,45.3257544 30.9157164,45.0713974 30.728,44.884 L25.807,39.961 L52.749,13.019 L55.186,15.454 C55.390949,15.6597267 55.6753402,15.7659835 55.9649766,15.7450482 C56.2546131,15.724113 56.5207672,15.5780621 56.694,15.345 L63.508,6.229 C63.8056519,5.83082058 63.7656068,5.2744487 63.414,4.923 L63.414,4.923 Z M9.051,59.521 C8.49317056,60.0835032 7.73319915,60.3990174 6.941,60.397 L6.939,60.397 C6.14793089,60.398242 5.38937072,60.0823553 4.833,59.52 C4.27,58.958 3.959,58.209 3.959,57.414 C3.959,56.619 4.271,55.869 4.834,55.305 L21.574,38.56 L23.574,40.56 C23.605,40.604 23.623,40.654 23.663,40.694 C23.703,40.734 23.753,40.751 23.797,40.783 L25.793,42.779 L9.051,59.521 L9.051,59.521 Z M55.783,13.223 L50.875,8.318 L58.607,2.945 L61.387,5.725 L55.783,13.223 L55.783,13.223 Z" id="Shape"></path>
                    <path d="M16.055,23.28 L24.597,31.802 C24.7842695,31.9901926 25.0389242,32.0958298 25.3044165,32.0954543 C25.5699088,32.0950787 25.8242636,31.9887216 26.011,31.8 C26.1984515,31.6123372 26.3035767,31.357831 26.3032016,31.0925853 C26.3028264,30.8273396 26.1969817,30.5731318 26.009,30.386 L17.005,21.403 C16.7165499,21.1157546 16.2829848,21.031571 15.908,21.19 C12.257,22.74 8.111,21.953 5.351,19.188 C2.96896129,16.8230443 2.01075299,13.3771433 2.83,10.122 L7.18,14.155 C7.365,14.326 7.608,14.422 7.86,14.422 L13.171,14.422 C13.7232847,14.422 14.171,13.9742847 14.171,13.422 L14.171,8.111 C14.1708292,7.86663311 14.0811861,7.63078642 13.919,7.448 L9.952,2.972 C13.169,2.136 16.514,3.044 18.957,5.485 C21.7383738,8.25292517 22.5517354,12.4366067 21.01,16.045 C20.8512554,16.4201238 20.9359036,16.8540448 21.224,17.142 L30.226,26.142 C30.6164653,26.5324653 31.2495347,26.5324653 31.64,26.142 C32.0304653,25.7515347 32.0304653,25.1184653 31.64,24.728 L23.1,16.19 C24.6202356,11.9631008 23.5562863,7.2382929 20.371,4.071 C16.994,0.698 12.183,-0.252 7.819,1.591 C7.52284569,1.7165265 7.30515266,1.9768486 7.23401193,2.29054156 C7.1628712,2.60423451 7.24696869,2.93299806 7.46,3.174 L12.171,8.49 L12.171,12.422 L8.253,12.422 L3.058,7.605 C2.81855017,7.3842543 2.48675435,7.29365316 2.16834541,7.36206832 C1.84993648,7.43048348 1.58464089,7.64937909 1.457,7.949 C-0.38,12.292 0.594,17.259 3.936,20.602 C7.116,23.787 11.805,24.802 16.055,23.28 L16.055,23.28 Z M47.705,40.791 L39.164,32.246 C38.9112346,31.9934132 38.5429163,31.8948621 38.197787,31.98747 C37.8526577,32.0800779 37.5831509,32.3497754 37.490787,32.69497 C37.3984232,33.0401647 37.4972346,33.4084132 37.75,33.661 L46.752,42.668 C47.0395485,42.9568594 47.4739663,43.0416045 47.849,42.882 C51.4572114,41.3413959 55.6400321,42.1555365 58.407,44.937 C60.8119937,47.3298622 61.7710362,50.8168055 60.928,54.103 L56.338,49.866 C56.1530584,49.6952803 55.9106913,49.6003323 55.659,49.6 L50.347,49.6 C49.7947153,49.6 49.347,50.0477153 49.347,50.6 L49.347,55.911 C49.347,56.17 49.448,56.419 49.627,56.605 L53.933,61.072 C50.655763,61.8976186 47.1858767,60.9376446 44.799,58.545 C42.0194179,55.7761196 41.2062837,51.5936076 42.746,47.985 C42.9047446,47.6098762 42.8200964,47.1759552 42.532,46.888 L33.525,37.878 C33.1345347,37.4875347 32.5014653,37.4875347 32.111,37.878 C31.7205347,38.2684653 31.7205347,38.9015347 32.111,39.292 L40.656,47.84 C39.1377317,52.0667038 40.2014628,56.790153 43.385,59.958 C45.5561846,62.1373358 48.5057121,63.3625574 51.582,63.363 C53.113,63.363 54.661,63.059 56.138,62.435 C56.4418579,62.3069035 56.6630323,62.037243 56.7292012,61.714195 C56.79537,61.391147 56.6980261,61.0562454 56.469,60.819 L51.347,55.506 L51.347,51.599 L55.268,51.599 L60.701,56.615 C60.9402163,56.8361717 61.2721777,56.9269468 61.5906517,56.8582759 C61.9091257,56.7896049 62.1741824,56.5700978 62.301,56.27 C64.1606082,51.9135115 63.1781986,46.8636092 59.821,43.522 C56.6544734,40.3376576 51.9314407,39.2730651 47.705,40.791 L47.705,40.791 Z" id="Shape"></path>
                </g>
            </g>
        </g>
    </g>
</svg>
