<svg xmlns="http://www.w3.org/2000/svg" viewBox="0 0 24 24">
<g>
	<path d="M10.3,19.3c2.9,0,5.3-2.4,5.3-5.2c0-2.9-2.4-5.2-5.3-5.2S5,11.1,5,14C5,16.9,7.3,19.3,10.3,19.3z M10.3,10.3
		c2.1,0,3.8,1.7,3.8,3.7c0,2.1-1.7,3.7-3.8,3.7S6.5,16.1,6.5,14C6.5,12,8.2,10.3,10.3,10.3z"/>
	<path d="M23.3,3.8l-3.4-3.3c-0.3-0.3-0.8-0.3-1,0l-3.4,3.3c-0.3,0.3-0.3,0.8,0,1.1C15.6,5,15.8,5.1,16,5.1c0.2,0,0.4-0.1,0.5-0.2
		l2.1-2v11c0,4.6-3.7,8.3-8.3,8.3s-8.3-3.7-8.3-8.3c0-2.5,1.1-4.8,3-6.4C5.2,7.2,5.3,6.8,5,6.4C4.7,6.1,4.2,6.1,3.9,6.4
		C1.7,8.2,0.4,11,0.4,13.9c0,5.4,4.4,9.8,9.8,9.8s9.8-4.4,9.8-9.8V2.8l2.2,2.1c0.3,0.3,0.8,0.3,1.1,0C23.7,4.6,23.6,4.1,23.3,3.8z"/>
</g>
</svg>
