<svg xmlns="http://www.w3.org/2000/svg" viewBox="0 0 16 16">
<g>
	<path d="M6.8,12.9c2,0,3.6-1.6,3.6-3.5c0-1.9-1.6-3.5-3.6-3.5S3.3,7.4,3.3,9.4C3.3,11.3,4.9,12.9,6.8,12.9z M6.8,6.8
		c1.4,0,2.6,1.1,2.6,2.5s-1.2,2.5-2.6,2.5c-1.4,0-2.6-1.1-2.6-2.5S5.4,6.8,6.8,6.8z"/>
	<path d="M15.6,2.5l-2.3-2.2c-0.2-0.2-0.5-0.2-0.7,0l-2.3,2.2c-0.2,0.2-0.2,0.5,0,0.7c0.2,0.2,0.5,0.2,0.7,0l1.4-1.4v7.4
		c0,3.1-2.5,5.6-5.6,5.6c-3.1,0-5.6-2.5-5.6-5.6C1.2,7.6,2,6,3.2,5c0.2-0.2,0.2-0.5,0.1-0.7C3.1,4.1,2.8,4,2.6,4.2
		C1.1,5.5,0.2,7.3,0.2,9.3c0,3.6,3,6.6,6.6,6.6c3.6,0,6.6-3,6.6-6.6V1.8l1.5,1.4c0.1,0.1,0.2,0.1,0.3,0.1c0.1,0,0.3-0.1,0.4-0.2
		C15.8,3,15.8,2.7,15.6,2.5z"/>
</g>
</svg>
