<svg xmlns="http://www.w3.org/2000/svg" viewBox="0 0 64 64">
<g>
	<path d="M27.2,51c7.5,0,13.6-6,13.6-13.4c0-7.4-6.1-13.4-13.6-13.4c-7.5,0-13.6,6-13.6,13.4C13.6,45,19.7,51,27.2,51z M27.2,26.2
		c6.4,0,11.6,5.1,11.6,11.4c0,6.3-5.2,11.4-11.6,11.4c-6.4,0-11.6-5.1-11.6-11.4C15.6,31.3,20.8,26.2,27.2,26.2z"/>
	<path d="M62.6,10.1L53.1,1c-0.4-0.4-1-0.4-1.4,0l-9.4,9.1c-0.4,0.4-0.4,1,0,1.4c0.4,0.4,1,0.4,1.4,0l7.6-7.4v33
		c0,13.3-10.8,24.1-24.1,24.1c-13.3,0-24.1-10.8-24.1-24.1c0-7.1,3.1-13.8,8.6-18.4c0.4-0.4,0.5-1,0.1-1.4c-0.4-0.4-1-0.5-1.4-0.1
		c-5.9,5-9.3,12.3-9.3,20c0,14.4,11.7,26.1,26.1,26.1c14.4,0,26.1-11.7,26.1-26.1V4l7.8,7.6c0.2,0.2,0.4,0.3,0.7,0.3
		c0.3,0,0.5-0.1,0.7-0.3C63,11.1,63,10.5,62.6,10.1z"/>
</g>
</svg>
