<svg viewBox="0 0 64 64" xmlns="http://www.w3.org/2000/svg"><path d="M 15.979 52.304 C 14.159 52.304 12.916 51.965 12.283 51.302 C 11.269 50.231 11.394 47.816 11.526 45.258 C 11.74 41.151 12.034 35.337 6.759 32.002 C 12.034 28.664 11.74 22.85 11.526 18.747 C 11.394 16.188 11.269 13.769 12.283 12.699 C 12.916 12.032 14.159 11.697 15.979 11.697 C 17.019 11.697 17.863 10.857 17.863 9.813 C 17.863 8.773 17.019 7.929 15.979 7.929 C 13.044 7.929 10.942 8.641 9.551 10.103 C 8.511 11.2 8.021 12.56 7.81 14.044 C 7.592 15.597 7.679 17.285 7.762 18.943 C 8.029 24.048 8.259 28.457 1.397 30.175 C 1.326 30.194 1.273 30.243 1.205 30.265 C 1.062 30.322 0.926 30.375 0.802 30.457 C 0.708 30.521 0.636 30.601 0.557 30.68 C 0.467 30.766 0.376 30.853 0.305 30.959 C 0.229 31.072 0.184 31.192 0.135 31.316 C 0.105 31.396 0.049 31.46 0.03 31.546 C 0.022 31.573 0.03 31.599 0.026 31.625 C 0 31.75 0.007 31.874 0.007 32.002 C 0.007 32.13 0 32.255 0.026 32.379 C 0.03 32.405 0.022 32.432 0.03 32.458 C 0.037 32.492 0.075 32.511 0.086 32.545 C 0.196 32.907 0.391 33.231 0.689 33.468 C 0.697 33.476 0.704 33.487 0.712 33.494 C 0.911 33.649 1.141 33.766 1.397 33.83 C 8.259 35.544 8.029 39.956 7.762 45.058 C 7.596 48.302 7.422 51.652 9.551 53.898 C 10.942 55.363 13.044 56.072 15.979 56.072 C 17.019 56.072 17.863 55.228 17.863 54.188 C 17.863 53.148 17.019 52.304 15.979 52.304"/><path d="M 63.974 31.625 C 63.97 31.598 63.978 31.572 63.97 31.546 C 63.951 31.463 63.895 31.399 63.865 31.323 C 63.812 31.195 63.767 31.067 63.688 30.954 C 63.624 30.856 63.541 30.781 63.458 30.698 C 63.371 30.611 63.288 30.521 63.183 30.453 C 63.074 30.378 62.949 30.332 62.825 30.28 C 62.746 30.249 62.682 30.197 62.599 30.174 C 55.741 28.456 55.967 24.047 56.235 18.942 C 56.404 15.701 56.578 12.348 54.445 10.102 C 53.058 8.64 50.952 7.928 48.017 7.928 C 46.977 7.928 46.133 8.772 46.133 9.812 C 46.133 10.856 46.977 11.696 48.017 11.696 C 49.841 11.696 51.084 12.035 51.713 12.698 C 52.731 13.769 52.602 16.188 52.471 18.746 C 52.26 22.849 51.962 28.663 57.241 32.002 C 51.962 35.34 52.26 41.15 52.471 45.257 C 52.602 47.815 52.731 50.231 51.713 51.301 C 51.084 51.964 49.841 52.303 48.017 52.303 C 46.977 52.303 46.133 53.147 46.133 54.187 C 46.133 55.227 46.977 56.071 48.017 56.071 C 50.952 56.071 53.058 55.363 54.445 53.897 C 56.578 51.651 56.404 48.302 56.235 45.057 C 55.967 39.956 55.741 35.543 62.599 33.829 C 62.859 33.765 63.089 33.648 63.285 33.497 C 63.296 33.486 63.3 33.475 63.311 33.467 C 63.609 33.23 63.801 32.906 63.914 32.544 C 63.925 32.51 63.963 32.495 63.97 32.457 C 63.978 32.431 63.97 32.405 63.974 32.378 C 64 32.254 63.993 32.13 63.993 32.002 C 63.993 31.873 64 31.749 63.974 31.625"/><path d="M 20.459 28.975 C 18.789 28.975 17.433 30.331 17.433 32 C 17.433 33.67 18.789 35.026 20.459 35.026 C 22.128 35.026 23.484 33.67 23.484 32 C 23.484 30.331 22.128 28.975 20.459 28.975"/><path d="M 43.539 28.975 C 41.87 28.975 40.513 30.331 40.513 32 C 40.513 33.67 41.87 35.026 43.539 35.026 C 45.208 35.026 46.565 33.67 46.565 32 C 46.565 30.331 45.208 28.975 43.539 28.975"/><path d="M 32 28.975 C 30.331 28.975 28.974 30.331 28.974 32 C 28.974 33.67 30.331 35.026 32 35.026 C 33.669 35.026 35.025 33.67 35.025 32 C 35.025 30.331 33.669 28.975 32 28.975"/></svg>
