<svg viewBox="0 0 24 24" xmlns="http://www.w3.org/2000/svg"><path d="M 5.993 19.613 C 5.31 19.613 4.844 19.486 4.607 19.238 C 4.227 18.836 4.274 17.931 4.323 16.971 C 4.404 15.43 4.514 13.251 2.536 12.001 C 4.514 10.749 4.404 8.569 4.323 7.03 C 4.274 6.071 4.227 5.164 4.607 4.762 C 4.844 4.512 5.31 4.387 5.993 4.387 C 6.382 4.387 6.7 4.072 6.7 3.681 C 6.7 3.29 6.382 2.974 5.993 2.974 C 4.892 2.974 4.104 3.241 3.583 3.789 C 2.784 4.631 2.849 5.888 2.911 7.103 C 3.012 9.018 3.098 10.67 0.525 11.315 C 0.498 11.322 0.478 11.34 0.453 11.349 C 0.399 11.37 0.349 11.39 0.302 11.421 C 0.267 11.445 0.24 11.474 0.21 11.504 C 0.176 11.537 0.142 11.569 0.116 11.609 C 0.087 11.651 0.07 11.696 0.052 11.743 C 0.041 11.772 0.02 11.796 0.013 11.829 C 0.01 11.839 0.013 11.848 0.011 11.858 C 0.001 11.905 0.004 11.953 0.004 12.001 C 0.004 12.049 0.001 12.095 0.011 12.142 C 0.013 12.152 0.01 12.161 0.013 12.171 C 0.015 12.184 0.03 12.191 0.034 12.204 C 0.075 12.339 0.148 12.461 0.26 12.55 C 0.262 12.552 0.265 12.557 0.268 12.559 C 0.343 12.617 0.429 12.661 0.525 12.685 C 3.098 13.328 3.012 14.982 2.911 16.896 C 2.849 18.113 2.784 19.368 3.583 20.209 C 4.104 20.76 4.892 21.026 5.993 21.026 C 6.382 21.026 6.7 20.708 6.7 20.319 C 6.7 19.929 6.382 19.613 5.993 19.613"/><path d="M 23.989 11.858 C 23.986 11.848 23.99 11.838 23.986 11.829 C 23.979 11.798 23.958 11.774 23.948 11.745 C 23.927 11.697 23.91 11.649 23.881 11.607 C 23.857 11.57 23.826 11.542 23.795 11.511 C 23.763 11.478 23.732 11.445 23.691 11.419 C 23.65 11.391 23.604 11.374 23.558 11.354 C 23.528 11.343 23.503 11.323 23.472 11.315 C 20.9 10.67 20.986 9.018 21.087 7.103 C 21.15 5.888 21.215 4.631 20.416 3.789 C 19.896 3.241 19.105 2.974 18.006 2.974 C 17.615 2.974 17.299 3.29 17.299 3.681 C 17.299 4.072 17.615 4.386 18.006 4.386 C 18.69 4.386 19.156 4.513 19.39 4.762 C 19.772 5.164 19.723 6.071 19.674 7.029 C 19.595 8.569 19.485 10.749 21.463 12 C 19.485 13.252 19.595 15.43 19.674 16.971 C 19.723 17.931 19.772 18.836 19.39 19.236 C 19.156 19.486 18.69 19.613 18.006 19.613 C 17.615 19.613 17.299 19.929 17.299 20.319 C 17.299 20.708 17.615 21.026 18.006 21.026 C 19.105 21.026 19.896 20.76 20.416 20.209 C 21.215 19.368 21.15 18.113 21.087 16.896 C 20.986 14.982 20.9 13.328 23.472 12.685 C 23.57 12.661 23.656 12.617 23.729 12.561 C 23.735 12.557 23.736 12.552 23.74 12.549 C 23.851 12.461 23.924 12.339 23.965 12.204 C 23.969 12.191 23.983 12.185 23.986 12.171 C 23.99 12.161 23.986 12.151 23.989 12.142 C 23.999 12.095 23.996 12.048 23.996 12 C 23.996 11.952 23.999 11.905 23.989 11.858"/><path d="M 7.671 10.865 C 7.046 10.865 6.537 11.374 6.537 12 C 6.537 12.625 7.046 13.133 7.671 13.133 C 8.298 13.133 8.806 12.625 8.806 12 C 8.806 11.374 8.298 10.865 7.671 10.865"/><path d="M 16.326 10.865 C 15.7 10.865 15.192 11.374 15.192 12 C 15.192 12.625 15.7 13.133 16.326 13.133 C 16.951 13.133 17.462 12.625 17.462 12 C 17.462 11.374 16.951 10.865 16.326 10.865"/><path d="M 11.999 10.865 C 11.374 10.865 10.865 11.374 10.865 12 C 10.865 12.625 11.374 13.133 11.999 13.133 C 12.625 13.133 13.134 12.625 13.134 12 C 13.134 11.374 12.625 10.865 11.999 10.865"/></svg>
