<svg viewBox="0 0 16 16" xmlns="http://www.w3.org/2000/svg"><path d="M 3.994 13.076 C 3.54 13.076 3.229 12.991 3.07 12.826 C 2.816 12.559 2.847 11.955 2.88 11.315 C 2.934 10.288 3.008 8.835 1.689 8.002 C 3.008 7.165 2.934 5.712 2.88 4.686 C 2.847 4.046 2.816 3.441 3.07 3.173 C 3.229 3.007 3.54 2.923 3.994 2.923 C 4.255 2.923 4.466 2.714 4.466 2.452 C 4.466 2.192 4.255 1.981 3.994 1.981 C 3.261 1.981 2.735 2.159 2.388 2.525 C 1.855 3.086 1.899 3.925 1.94 4.735 C 2.007 6.011 2.064 7.114 0.348 7.544 C 0.33 7.548 0.317 7.56 0.3 7.566 C 0.264 7.58 0.23 7.593 0.199 7.614 C 0.176 7.63 0.158 7.65 0.138 7.67 C 0.116 7.691 0.093 7.713 0.075 7.739 C 0.056 7.767 0.045 7.797 0.033 7.828 C 0.025 7.849 0.011 7.865 0.007 7.887 C 0.005 7.893 0.007 7.9 0.006 7.907 C -0.001 7.938 0.001 7.969 0.001 8.002 C 0.001 8.033 -0.001 8.064 0.006 8.095 C 0.007 8.101 0.005 8.108 0.007 8.115 C 0.008 8.123 0.018 8.128 0.021 8.136 C 0.048 8.226 0.097 8.307 0.171 8.366 C 0.173 8.368 0.175 8.372 0.177 8.373 C 0.227 8.412 0.284 8.441 0.348 8.457 C 2.064 8.886 2.007 9.99 1.94 11.266 C 1.899 12.075 1.855 12.913 2.388 13.476 C 2.735 13.842 3.261 14.018 3.994 14.018 C 4.255 14.018 4.466 13.808 4.466 13.549 C 4.466 13.288 4.255 13.076 3.994 13.076"/><path d="M 15.995 7.907 C 15.995 7.9 15.996 7.893 15.995 7.887 C 15.99 7.866 15.976 7.85 15.968 7.831 C 15.955 7.798 15.944 7.766 15.924 7.738 C 15.908 7.714 15.887 7.695 15.867 7.674 C 15.845 7.653 15.824 7.63 15.798 7.613 C 15.771 7.594 15.739 7.583 15.708 7.57 C 15.688 7.562 15.672 7.549 15.651 7.544 C 13.937 7.114 13.994 6.011 14.061 4.735 C 14.103 3.925 14.147 3.086 13.612 2.525 C 13.266 2.159 12.74 1.981 12.005 1.981 C 11.746 1.981 11.535 2.192 11.535 2.452 C 11.535 2.714 11.746 2.923 12.005 2.923 C 12.461 2.923 12.773 3.008 12.93 3.173 C 13.185 3.441 13.153 4.046 13.12 4.686 C 13.067 5.712 12.992 7.165 14.312 8.002 C 12.992 8.837 13.067 10.288 13.12 11.315 C 13.153 11.955 13.185 12.559 12.93 12.826 C 12.773 12.991 12.461 13.076 12.005 13.076 C 11.746 13.076 11.535 13.288 11.535 13.549 C 11.535 13.808 11.746 14.018 12.005 14.018 C 12.74 14.018 13.266 13.842 13.612 13.476 C 14.147 12.913 14.103 12.075 14.061 11.266 C 13.994 9.99 13.937 8.886 15.651 8.457 C 15.716 8.441 15.774 8.412 15.823 8.374 C 15.826 8.372 15.827 8.368 15.83 8.366 C 15.904 8.307 15.952 8.226 15.98 8.136 C 15.983 8.128 15.993 8.124 15.995 8.115 C 15.996 8.108 15.995 8.101 15.995 8.095 C 16.001 8.064 16 8.033 16 8.002 C 16 7.969 16.001 7.938 15.995 7.907"/><path d="M 5.115 7.243 C 4.697 7.243 4.359 7.582 4.359 8.002 C 4.359 8.417 4.697 8.759 5.115 8.759 C 5.532 8.759 5.872 8.417 5.872 8.002 C 5.872 7.582 5.532 7.243 5.115 7.243"/><path d="M 10.885 7.243 C 10.469 7.243 10.128 7.582 10.128 8.002 C 10.128 8.417 10.469 8.759 10.885 8.759 C 11.303 8.759 11.642 8.417 11.642 8.002 C 11.642 7.582 11.303 7.243 10.885 7.243"/><path d="M 8.001 7.243 C 7.582 7.243 7.244 7.582 7.244 8.002 C 7.244 8.417 7.582 8.759 8.001 8.759 C 8.418 8.759 8.757 8.417 8.757 8.002 C 8.757 7.582 8.418 7.243 8.001 7.243"/></svg>
