<svg xmlns="http://www.w3.org/2000/svg" viewBox="0 0 64 64"><path d="M62.572.514h-35.59a1 1 0 0 0-1 1v20.261H1.437a1 1 0 0 0-1 1V62.64a1 1 0 0 0 1 1H62.572a1 1 0 0 0 1-1V1.514a1 1 0 0 0-1-1zM2.437 23.775h33.947V61.64H25.07v-6.973a1 1 0 0 0-1-1h-7.988a1 1 0 0 0-1 1v6.973H2.437V23.775zM17.082 61.64v-5.973h5.988v5.973h-5.988zm29.29 0v-5.973h5.988v5.973h-5.988zm15.2 0H54.36v-6.973a1 1 0 0 0-1-1h-7.988a1 1 0 0 0-1 1v6.973h-5.988V22.775a1 1 0 0 0-1-1h-9.401V2.514h33.59V61.64z"/><path d="M8.254 29.09h10.651a1 1 0 1 0 0-2H8.254a1 1 0 1 0 0 2zM16.243 34.405a1 1 0 1 0 0-2H8.254a1 1 0 1 0 0 2h7.989zM34.104 13.144h10.651a1 1 0 1 0 0-2H34.104a1 1 0 1 0 0 2zM34.104 7.829H50.08a1 1 0 1 0 0-2H34.104a1 1 0 1 0 0 2zM34.104 18.459h7.988a1 1 0 1 0 0-2h-7.988a1 1 0 1 0 0 2zM14.036 37.721H8.711a1 1 0 1 0 0 2h5.325a1 1 0 1 0 0-2z"/></svg>