<?xml version="1.0" encoding="utf-8"?>
<!-- Generator: Adobe Illustrator 20.1.0, SVG Export Plug-In . SVG Version: 6.00 Build 0)  -->
<svg version="1.1" id="Layer_1" xmlns="http://www.w3.org/2000/svg" xmlns:xlink="http://www.w3.org/1999/xlink" x="0px" y="0px"
	 viewBox="0 0 16 16" style="enable-background:new 0 0 16 16;" xml:space="preserve">
<style type="text/css">
	.st0{fill:#010101;}
</style>
<path class="st0" d="M0.6,15.9C0.6,15.9,0.6,15.9,0.6,15.9c-0.3,0-0.5-0.3-0.5-0.5c0.2-3.1,2.2-5.7,5-6.9C3.9,7.7,3.3,6.3,3.3,4.8
	c0-2.6,2.1-4.7,4.7-4.7c2.6,0,4.7,2.1,4.7,4.7c0,1.5-0.7,2.8-1.8,3.7c2.8,1.1,4.8,3.8,5,6.9c0,0.3-0.2,0.5-0.5,0.5
	c-0.3,0-0.5-0.2-0.5-0.5c-0.2-3-2.4-5.6-5.3-6.3c-0.2,0-0.4-0.2-0.4-0.4c0-0.2,0.1-0.4,0.3-0.5c1.4-0.6,2.2-1.9,2.2-3.4
	c0-2.1-1.7-3.7-3.7-3.7c-2.1,0-3.7,1.7-3.7,3.7c0,1.5,0.9,2.8,2.2,3.4c0.2,0.1,0.3,0.3,0.3,0.5c0,0.2-0.2,0.4-0.4,0.4
	c-2.9,0.7-5.1,3.3-5.3,6.3C1.1,15.7,0.8,15.9,0.6,15.9z"/>
</svg>
