<?xml version="1.0" encoding="utf-8"?>
<!-- Generator: Adobe Illustrator 18.1.1, SVG Export Plug-In . SVG Version: 6.00 Build 0)  -->
<!DOCTYPE svg PUBLIC "-//W3C//DTD SVG 1.1//EN" "http://www.w3.org/Graphics/SVG/1.1/DTD/svg11.dtd">
<svg version="1.1" id="Layer_1" xmlns="http://www.w3.org/2000/svg" xmlns:xlink="http://www.w3.org/1999/xlink" x="0px" y="0px"
	 width="109.3px" height="109.4px" viewBox="-1337.6 964.4 109.3 109.4" enable-background="new -1337.6 964.4 109.3 109.4"
	 xml:space="preserve">
<g>
	<path fill="#C7C7C7" d="M-1283,976.2c23.8,0,43,19.2,43,43c0,23.8-19.2,43-43,43s-43-19.2-43-43
		C-1326,995.4-1306.8,976.2-1283,976.2 M-1283,972.2c-26,0-47,21-47,47s21,47,47,47s47-21,47-47C-1236,993.3-1257,972.2-1283,972.2
		L-1283,972.2z"/>
</g>
<g>
	<g>
		<g>
			<defs>
				<polygon id="SVGID_1_" points="-1228.3,1073.8 -1337.6,1073.8 -1337.6,1019.1 -1283,1018.9 -1283,964.4 -1228.3,964.4 				"/>
			</defs>
			<clipPath id="SVGID_2_">
				<use xlink:href="#SVGID_1_"  overflow="visible"/>
			</clipPath>
			<g clip-path="url(#SVGID_2_)">
				<g>
					<path fill="#4178BE" d="M-1283,972.2c25.9,0,47,21.1,47,47s-21.1,47-47,47s-47-21.1-47-47S-1308.9,972.2-1283,972.2
						 M-1283,964.6c-30.1,0-54.6,24.5-54.6,54.6s24.5,54.6,54.6,54.6s54.6-24.5,54.6-54.6S-1252.9,964.6-1283,964.6L-1283,964.6z"/>
				</g>
			</g>
		</g>
	</g>
</g>
</svg>
